<svg width="18" height="14" viewBox="0 0 18 14" fill="none" xmlns="http://www.w3.org/2000/svg">
<path d="M7.69398 1.78361C8.10201 1.37559 8.10201 0.714045 7.69398 0.306019C7.28596 -0.102006 6.62441 -0.102006 6.21639 0.306019L0.306019 6.21639C0.0906041 6.4318 -0.0110838 6.71788 0.000955933 7.00001C-0.0110796 7.28213 0.0906084 7.5682 0.30602 7.78361L6.21639 13.694C6.62441 14.102 7.28595 14.102 7.69398 13.694C8.10201 13.286 8.10201 12.6244 7.69398 12.2164L3.47759 8H17C17.5523 8 18 7.55229 18 7C18 6.44772 17.5523 6 17 6H3.47759L7.69398 1.78361Z" fill="#EAD7C6"/>
</svg>
