<svg width="295" height="196" viewBox="0 0 295 196" fill="none" xmlns="http://www.w3.org/2000/svg">
<rect width="295" height="196" fill="white"/>
<path fill-rule="evenodd" clip-rule="evenodd" d="M58.6225 105.987C56.0086 106.714 53.6518 108.34 51.4664 110.822C49.2809 113.347 48.2097 116.129 48.2097 119.124C48.2097 121.007 48.8524 123.147 50.0951 125.415C51.3378 127.726 53.2232 129.395 55.6658 130.465C56.4799 130.636 56.8656 131.064 56.8656 131.663C56.8656 131.877 56.5656 132.091 55.8372 132.262C51.9377 131.278 48.7239 129.181 46.2385 126.057C43.7531 122.89 42.4676 119.296 42.3819 115.187C42.5105 110.78 43.8388 106.671 46.3671 102.906C48.9381 99.0969 52.2377 96.4009 56.2657 94.8175L53.309 79.6257C46.7099 85.1033 41.3535 90.7949 37.1969 96.786C33.0403 102.734 30.8978 109.196 30.7264 116.172C30.8121 119.296 31.4549 122.334 32.6547 125.244C33.8545 128.197 35.6543 130.85 38.0539 133.289C42.8961 138.125 49.1952 140.65 56.8656 140.907C59.4795 140.735 62.2648 140.265 65.2644 139.494L58.6225 105.987ZM61.7078 105.559L68.3926 138.467C74.9916 135.814 78.2912 130.037 78.2912 121.221C77.9055 118.269 77.0485 115.615 75.5916 113.262C74.1775 110.865 72.292 108.982 69.8924 107.613C67.4927 106.243 64.7931 105.559 61.7078 105.559ZM52.9233 61.0531C54.3374 60.1972 55.9657 58.6995 57.7226 56.6026C59.4795 54.5484 61.1936 52.1092 62.8219 49.3704C64.4931 46.5888 65.8215 43.7644 66.8071 40.8972C67.7926 38.0728 68.264 35.3768 68.264 32.8947C68.264 31.8249 68.1783 30.755 67.964 29.8136C67.7926 28.273 67.3213 27.0748 66.5071 26.2617C65.6929 25.4914 64.6645 25.0635 63.379 25.0635C60.8079 25.0635 58.4939 26.6468 56.4371 29.8136C54.8516 32.5524 53.5232 35.8047 52.5805 39.485C51.5949 43.2081 51.0378 46.8883 50.9521 50.6114C51.1664 54.848 51.852 58.3143 52.9233 61.0531ZM50.2237 63.5352C48.2954 56.6026 47.2241 49.5416 47.0098 42.3522C47.0527 37.7304 47.524 33.4083 48.4239 29.3856C49.2809 25.363 50.5236 21.8967 52.152 18.9011C53.7375 15.9056 55.5801 13.6375 57.6369 12.0969C59.4795 10.7275 60.8079 10 61.5364 10C62.0934 10 62.5648 10.214 62.9933 10.5991C63.4218 10.9843 63.9789 11.6262 64.6645 12.482C69.7638 19.7142 72.3349 28.4442 72.3349 38.6291C72.3349 43.4648 71.6921 48.1722 70.4066 52.8795C69.1639 57.544 67.3213 61.9946 64.8788 66.1456C62.3934 70.3394 59.4795 73.9769 56.0943 77.1008L59.5652 93.9616C61.4507 93.7477 62.7362 93.5765 63.4647 93.5765C66.7214 93.5765 69.6352 94.2612 72.3349 95.6306C75.0345 97 77.3485 98.8401 79.2339 101.194C81.1194 103.505 82.5763 106.158 83.6047 109.153C84.5903 112.149 85.1474 115.273 85.1474 118.525C85.1474 123.575 83.819 128.197 81.1622 132.348C78.5054 136.499 74.5203 139.537 69.1639 141.506C69.5067 143.603 70.1066 146.641 71.0065 150.535C71.8635 154.472 72.5063 157.596 72.9348 159.907C73.3633 162.218 73.5347 164.443 73.5347 166.626C73.5347 170.006 72.7205 173.002 71.0922 175.655C69.421 178.308 67.1927 180.363 64.3646 181.818C61.5792 183.273 58.4939 184 55.1516 184C50.4379 184 46.3242 182.673 42.8104 180.063C39.2966 177.41 37.4112 173.858 37.2398 169.322C37.3683 167.31 37.8397 165.427 38.6967 163.63C39.5537 161.833 40.7107 160.378 42.2105 159.265C43.6674 158.11 45.4243 157.511 47.4383 157.382C49.1095 157.382 50.695 157.853 52.1948 158.752C53.6518 159.693 54.8516 160.934 55.7515 162.517C56.6085 164.101 57.0799 165.855 57.0799 167.738C57.0799 170.263 56.2228 172.403 54.5088 174.157C52.7947 175.912 50.6093 176.811 47.9954 176.811H47.0098C48.681 179.378 51.4235 180.705 55.2373 180.705C57.1656 180.705 59.1367 180.277 61.1079 179.507C63.1219 178.694 64.7931 177.624 66.2072 176.254C67.6212 174.885 68.564 173.43 68.9496 171.889C69.6781 170.135 70.0209 167.696 70.0209 164.657C70.0209 162.603 69.8066 160.549 69.421 158.495C69.0353 156.484 68.4354 153.788 67.6212 150.45C66.8071 147.154 66.2072 144.587 65.8643 142.832C63.2933 143.474 60.6365 143.817 57.8512 143.817C53.1804 143.817 48.7667 142.875 44.6102 140.949C40.4536 139.024 36.8113 136.37 33.6403 132.947C30.5121 129.523 28.0696 125.672 26.3127 121.307C24.5987 116.985 23.6988 112.449 23.6559 107.741C23.8273 103.376 24.6415 99.1825 26.1842 95.2454C27.7268 91.2656 29.698 87.4998 32.1405 83.9907C34.583 80.4816 37.1112 77.272 39.7251 74.4048C42.3819 71.5804 45.8528 67.9429 50.2237 63.5352Z" fill="#131516" stroke="#131516" stroke-width="0.575156"/>
<path d="M15 93H280" stroke="#131516" stroke-width="2.5"/>
<path d="M15 144H280" stroke="#131516" stroke-width="2.5"/>
<path d="M15 119H280" stroke="#131516" stroke-width="2.5"/>
<path d="M15 68H280" stroke="#131516" stroke-width="2.5"/>
<path d="M15 43H280" stroke="#131516" stroke-width="2.5"/>
<ellipse cx="191.5" cy="118.727" rx="17.5" ry="12.7273" fill="black"/>
<circle cx="191.5" cy="118.727" r="8.75" fill="white"/>
<ellipse cx="191.5" cy="143.727" rx="17.5" ry="12.7273" fill="black"/>
<circle cx="191.5" cy="143.727" r="8.75" fill="white"/>
<ellipse cx="191.5" cy="168.727" rx="17.5" ry="12.7273" fill="black"/>
<circle cx="191.5" cy="168.727" r="8.75" fill="white"/>
<path d="M164 169L218 169" stroke="#131516" stroke-width="2.5"/>
</svg>
