<svg width="305" height="180" viewBox="0 0 305 180" fill="none" xmlns="http://www.w3.org/2000/svg">
<g clip-path="url(#clip0_30_54)">
<path d="M144.434 98.233L144.266 98.2554L144.146 98.3751C142.348 100.173 141.609 101.998 141.593 103.952C141.578 105.872 142.262 107.867 143.19 110.01C143.571 110.888 143.994 111.796 144.436 112.743C146.171 116.466 148.191 120.799 149.005 126.302C149.502 129.661 148.627 132.328 146.788 134.308C144.935 136.304 142.059 137.649 138.486 138.246C131.337 139.441 121.56 137.611 112.246 132.303C109.439 130.704 103.242 129.372 98.208 132.915C93.4272 135.361 89.1153 137.796 85.1073 140.06C83.5733 140.926 82.0838 141.768 80.6296 142.575C75.3572 145.501 70.5433 147.981 65.691 149.632C56.0312 152.918 46.1682 152.936 32.237 146.421C25.3734 143.212 20.0394 136.444 16.3326 127.699C12.6286 118.96 10.5738 108.301 10.2345 97.4058C9.89526 86.5114 11.272 75.406 14.4101 65.7784C17.5501 56.145 22.4392 48.0334 29.093 43.0679C38.9628 35.7024 53.3559 36.6067 66.1138 39.8534C78.8399 43.0921 89.7565 48.6148 92.5127 50.247C93.5459 50.8589 94.4163 51.4005 95.1883 51.881C96.4655 52.6758 97.4734 53.3031 98.5039 53.8034C100.2 54.627 101.986 55.1288 105.197 55.5841C106.865 55.8207 108.893 55.6506 111.184 55.2904C112.966 55.0103 114.94 54.6092 117.063 54.178C117.674 54.0538 118.297 53.9272 118.932 53.8002C124.626 52.6608 131.294 51.4805 138.483 51.7283C145.687 51.9768 150.167 53.4977 152.85 55.9566C155.516 58.4007 156.5 61.86 156.5 66.2286C156.5 68.739 156.563 70.8999 156.622 72.9005C156.727 76.4806 156.817 79.5474 156.502 83.1854C156.213 86.5116 154.649 90.0946 152.405 92.9462C150.155 95.8053 147.285 97.8529 144.434 98.233Z" fill="black" stroke="black"/>
<circle cx="107.943" cy="91.7539" r="23.705" transform="rotate(45 107.943 91.7539)" fill="white"/>
<circle cx="107.943" cy="91.35" r="21.1346" transform="rotate(45 107.943 91.35)" fill="black"/>
<ellipse cx="107.741" cy="91.552" rx="17.7074" ry="17.993" transform="rotate(45 107.741 91.552)" fill="white"/>
<path d="M259 80.2287V100.229H124C128.745 91.9897 128.732 87.6118 124 80.2287H259Z" fill="black"/>
<rect x="59.3171" y="66.9588" width="49.1861" height="9.37984" transform="rotate(90 59.3171 66.9588)" fill="white"/>
<circle cx="54.6273" cy="101.448" r="1.42801" transform="rotate(45 54.6273 101.448)" fill="black"/>
<circle cx="54.6273" cy="97.4086" r="1.42801" transform="rotate(45 54.6273 97.4086)" fill="black"/>
<circle cx="54.6273" cy="93.3696" r="1.42801" transform="rotate(45 54.6273 93.3696)" fill="black"/>
<circle cx="54.6273" cy="89.3305" r="1.42801" transform="rotate(45 54.6273 89.3305)" fill="black"/>
<circle cx="54.6273" cy="85.2915" r="1.42801" transform="rotate(45 54.6273 85.2915)" fill="black"/>
<circle cx="54.6272" cy="81.2524" r="1.42801" transform="rotate(45 54.6272 81.2524)" fill="black"/>
<path d="M260 80.4859L300 76.2287V103.229L260 100.122V80.4859Z" fill="black"/>
<path d="M262 72.8098L270.488 71.6449L270.931 74.8685C271.082 75.9674 270.614 77.0598 269.714 77.7089L268.662 78.4687C267.886 79.0288 266.889 79.185 265.978 78.8891L264.476 78.4006C263.382 78.045 262.588 77.0951 262.432 75.9555L262 72.8098Z" fill="black"/>
<path d="M273.275 71.6155L281.764 70.4506L282.206 73.6742C282.357 74.7731 281.889 75.8655 280.989 76.5147L279.937 77.2744C279.161 77.8345 278.164 77.9907 277.254 77.6948L275.751 77.2063C274.657 76.8507 273.863 75.9008 273.707 74.7612L273.275 71.6155Z" fill="black"/>
<path d="M285.357 70.3936L293.846 69.2287L294.288 72.4523C294.439 73.5512 293.971 74.6436 293.072 75.2927L292.019 76.0525C291.243 76.6126 290.246 76.7688 289.336 76.4729L287.834 75.9844C286.74 75.6288 285.945 74.6789 285.789 73.5393L285.357 70.3936Z" fill="black"/>
<path d="M293.953 110.887L285.397 110.443L285.565 107.194C285.623 106.086 286.287 105.1 287.292 104.631L288.468 104.082C289.335 103.677 290.344 103.71 291.183 104.171L292.567 104.932C293.575 105.486 294.178 106.568 294.118 107.716L293.953 110.887Z" fill="black"/>
<path d="M282.654 109.951L274.097 109.507L274.266 106.257C274.324 105.149 274.988 104.164 275.993 103.695L277.169 103.145C278.036 102.74 279.044 102.773 279.883 103.234L281.268 103.995C282.276 104.549 282.878 105.631 282.819 106.78L282.654 109.951Z" fill="black"/>
<path d="M270.556 108.89L262 108.446L262.168 105.197C262.226 104.089 262.89 103.103 263.895 102.634L265.071 102.085C265.938 101.68 266.947 101.713 267.786 102.174L269.17 102.935C270.178 103.489 270.781 104.57 270.721 105.719L270.556 108.89Z" fill="black"/>
</g>
<defs>
<clipPath id="clip0_30_54">
<rect width="305" height="180" fill="white"/>
</clipPath>
</defs>
</svg>
