<svg width="350" height="275" viewBox="0 0 350 275" fill="none" xmlns="http://www.w3.org/2000/svg">
<g clip-path="url(#clip0_30_54)">
<path d="M173.434 145.004L173.266 145.027L173.147 145.146C171.348 146.945 170.61 148.769 170.594 150.724C170.578 152.644 171.262 154.639 172.19 156.781C172.571 157.659 172.994 158.567 173.436 159.515C175.171 163.237 177.191 167.57 178.005 173.073C178.503 176.432 177.627 179.099 175.788 181.08C173.935 183.075 171.059 184.42 167.486 185.017C160.337 186.212 150.56 184.383 141.246 179.075C138.439 177.475 132.242 176.144 127.208 179.686C122.427 182.132 118.115 184.567 114.107 186.831C112.573 187.698 111.084 188.539 109.63 189.346C104.357 192.272 99.5434 194.753 94.6912 196.403C85.0313 199.69 75.1683 199.707 61.2371 193.193C54.3735 189.983 49.0395 183.216 45.3327 174.47C41.6287 165.732 39.574 155.073 39.2347 144.177C38.8954 133.283 40.2721 122.177 43.4102 112.55C46.5503 102.916 51.4394 94.8048 58.0931 89.8393C67.9629 82.4738 82.356 83.378 95.114 86.6248C107.84 89.8634 118.757 95.3862 121.513 97.0184C122.546 97.6302 123.416 98.1719 124.188 98.6524C125.466 99.4472 126.474 100.074 127.504 100.575C129.2 101.398 130.986 101.9 134.197 102.355C135.865 102.592 137.893 102.422 140.184 102.062C141.966 101.782 143.94 101.381 146.063 100.949C146.674 100.825 147.297 100.699 147.932 100.572C153.626 99.4322 160.294 98.2518 167.483 98.4997C174.687 98.7481 179.167 100.269 181.85 102.728C184.516 105.172 185.5 108.631 185.5 113C185.5 115.51 185.563 117.671 185.622 119.672C185.727 123.252 185.817 126.319 185.502 129.957C185.214 133.283 183.649 136.866 181.405 139.718C179.156 142.577 176.285 144.624 173.434 145.004Z" fill="black" stroke="black"/>
<circle cx="136.943" cy="138.525" r="23.705" transform="rotate(45 136.943 138.525)" fill="white"/>
<circle cx="136.943" cy="138.121" r="21.1346" transform="rotate(45 136.943 138.121)" fill="black"/>
<ellipse cx="136.741" cy="138.323" rx="17.7074" ry="17.993" transform="rotate(45 136.741 138.323)" fill="white"/>
<path d="M288 127V147H153C157.745 138.761 157.732 134.383 153 127H288Z" fill="black"/>
<rect x="88.3173" y="113.73" width="49.1861" height="9.37984" transform="rotate(90 88.3173 113.73)" fill="white"/>
<circle cx="83.6274" cy="148.219" r="1.42801" transform="rotate(45 83.6274 148.219)" fill="black"/>
<circle cx="83.6274" cy="144.18" r="1.42801" transform="rotate(45 83.6274 144.18)" fill="black"/>
<circle cx="83.6274" cy="140.141" r="1.42801" transform="rotate(45 83.6274 140.141)" fill="black"/>
<circle cx="83.6274" cy="136.102" r="1.42801" transform="rotate(45 83.6274 136.102)" fill="black"/>
<circle cx="83.6274" cy="132.063" r="1.42801" transform="rotate(45 83.6274 132.063)" fill="black"/>
<circle cx="83.6273" cy="128.024" r="1.42801" transform="rotate(45 83.6273 128.024)" fill="black"/>
<path d="M289 127.257L329 123V150L289 146.894V127.257Z" fill="black"/>
<path d="M291 119.581L299.489 118.416L299.931 121.64C300.082 122.739 299.614 123.831 298.714 124.48L297.662 125.24C296.886 125.8 295.889 125.956 294.979 125.66L293.476 125.172C292.382 124.816 291.588 123.866 291.432 122.727L291 119.581Z" fill="black"/>
<path d="M302.275 118.387L310.764 117.222L311.206 120.446C311.357 121.544 310.889 122.637 309.99 123.286L308.937 124.046C308.161 124.606 307.164 124.762 306.254 124.466L304.751 123.978C303.657 123.622 302.863 122.672 302.707 121.533L302.275 118.387Z" fill="black"/>
<path d="M314.357 117.165L322.846 116L323.288 119.224C323.439 120.323 322.971 121.415 322.072 122.064L321.019 122.824C320.243 123.384 319.246 123.54 318.336 123.244L316.834 122.756C315.74 122.4 314.946 121.45 314.789 120.311L314.357 117.165Z" fill="black"/>
<path d="M322.953 157.659L314.397 157.215L314.566 153.965C314.623 152.857 315.287 151.872 316.292 151.402L317.468 150.853C318.335 150.448 319.344 150.481 320.183 150.942L321.567 151.703C322.575 152.257 323.178 153.339 323.118 154.488L322.953 157.659Z" fill="black"/>
<path d="M311.654 156.722L303.098 156.278L303.266 153.029C303.324 151.921 303.988 150.935 304.993 150.466L306.169 149.917C307.036 149.512 308.045 149.545 308.883 150.006L310.268 150.767C311.276 151.321 311.878 152.402 311.819 153.551L311.654 156.722Z" fill="black"/>
<path d="M299.557 155.662L291 155.217L291.169 151.968C291.226 150.86 291.89 149.875 292.895 149.405L294.071 148.856C294.938 148.451 295.947 148.484 296.786 148.945L298.17 149.706C299.178 150.26 299.781 151.342 299.721 152.491L299.557 155.662Z" fill="black"/>
</g>
<defs>
<clipPath id="clip0_30_54">
<rect width="350" height="275" fill="white"/>
</clipPath>
</defs>
</svg>
